<?xml version="1.0" encoding="UTF-8"?>
<!-- Generator: visioncortex VTracer 0.6.4 -->
<svg version="1.1" xmlns="http://www.w3.org/2000/svg" width="1024" height="1024">
<path d="M0 0 C0.68 0.241 1.361 0.481 2.062 0.729 C32.696 11.856 59.341 33.185 79 59 C87.965 57.028 96.922 55.031 105.855 52.922 C149.24 42.738 194.286 33.765 239 33 C240.024 32.98 241.047 32.959 242.102 32.938 C291.33 32.082 291.33 32.082 307.438 46.125 C310.626 49.951 310.399 54.27 310.336 59.031 C309.302 68.173 302.793 75.28 297 82 C296.332 82.802 295.665 83.604 294.977 84.43 C282.593 98.839 266.575 110.292 251 121 C250.051 121.674 249.102 122.348 248.125 123.043 C239.682 129.006 230.946 134.398 222.094 139.73 C220.251 140.848 218.419 141.98 216.594 143.125 C202.048 152.235 186.874 160.182 171.641 168.066 C168.178 169.86 164.728 171.674 161.297 173.527 C148.578 180.379 135.525 186.44 122.392 192.447 C116.922 194.952 111.461 197.476 106 200 C105.399 201.835 105.399 201.835 104.785 203.707 C99.342 219.972 92.986 235.933 83 250 C82.325 250.959 81.649 251.918 80.953 252.906 C69.97 268.018 56.763 281.855 41 292 C40.05 292.634 39.1 293.268 38.121 293.922 C26 301.75 12.664 307.425 -1 312 C-2.32 311.67 -3.64 311.34 -5 311 C-3.958 310.599 -2.917 310.198 -1.844 309.785 C38.098 294.088 71.378 265.047 89.059 225.508 C89.692 224.029 90.319 222.547 90.938 221.062 C91.22 220.39 91.502 219.717 91.793 219.023 C93.76 214.116 94.986 209.183 96 204 C95.358 204.286 94.716 204.572 94.054 204.867 C90.996 206.227 87.935 207.582 84.875 208.938 C83.867 209.387 82.859 209.836 81.82 210.299 C63.598 218.354 45.081 225.589 26.375 232.438 C24.333 233.187 22.291 233.937 20.248 234.687 C16.263 236.149 12.276 237.608 8.289 239.064 C3.98 240.639 -0.321 242.23 -4.621 243.828 C-37.471 255.931 -71.253 265.73 -105 275 C-106.048 275.288 -106.048 275.288 -107.118 275.582 C-167.119 292.037 -228.014 304.186 -290 310 C-291.033 310.105 -292.066 310.211 -293.13 310.319 C-303.056 311.232 -313.003 311.186 -322.963 311.185 C-326.032 311.187 -329.101 311.206 -332.17 311.225 C-387.766 311.385 -387.766 311.385 -406 294 C-409.041 289.818 -409.648 285.843 -409.473 280.773 C-405.931 259.994 -382.975 243.183 -367.073 231.526 C-365.152 230.112 -363.251 228.677 -361.355 227.23 C-350.677 219.146 -339.381 212.047 -328 205 C-327.184 204.494 -326.369 203.987 -325.528 203.465 C-298.947 187.035 -271.175 172.296 -243.081 158.64 C-241.284 157.766 -239.488 156.889 -237.693 156.011 C-236.058 155.224 -236.058 155.224 -234.391 154.422 C-233.422 153.954 -232.453 153.485 -231.454 153.003 C-229 152 -229 152 -226 152 C-226 158.6 -226 165.2 -226 172 C-228.578 173.382 -231.156 174.764 -233.812 176.188 C-248.133 184.045 -261.673 193.271 -274 204 C-274.847 204.703 -275.694 205.405 -276.566 206.129 C-284.984 213.313 -293.254 222.017 -296 233 C-296.403 238.564 -296.033 240.945 -293 246 C-291.239 246.977 -289.466 247.931 -287.688 248.875 C-286.701 249.409 -285.715 249.942 -284.699 250.492 C-274.811 254.523 -264.398 254.361 -253.875 254.312 C-253.134 254.312 -252.393 254.312 -251.629 254.311 C-238.86 254.285 -226.425 253.218 -213.786 251.364 C-208.875 250.722 -203.939 250.362 -199 250 C-199 250.33 -199 250.66 -199 251 C-227.519 257.352 -255.654 263.289 -285 263.438 C-285.704 263.444 -286.407 263.45 -287.132 263.457 C-299.31 263.526 -313.289 263.309 -323 255 C-325.871 251.681 -326.312 249.853 -326.312 245.422 C-325.392 238.285 -320.751 232.158 -316 227 C-315.34 227 -314.68 227 -314 227 C-313.536 226.041 -313.536 226.041 -313.062 225.062 C-312 223 -312 223 -311 222 C-322.998 230.546 -334.122 239.305 -338 254 C-335.942 260.174 -333.849 263.055 -328.16 265.93 C-264.007 289.818 -155.953 250.142 86.871 165.453 C92.592 162.829 98.283 160.144 103.966 157.439 C106.842 156.075 109.725 154.731 112.613 153.395 C127.073 146.666 140.983 139.047 154.895 131.262 C156.43 130.403 157.965 129.545 159.5 128.688 C160.239 128.274 160.978 127.86 161.74 127.433 C166.06 125.028 170.422 122.779 174.875 120.625 C188.253 114.037 201.257 106.204 213 97 C213.966 96.272 214.931 95.543 215.926 94.793 C222.582 89.618 228.47 84.685 229.812 76 C230.318 72.46 230.318 72.46 227 68 C213.695 60.434 199.883 60.467 185 60.562 C184.017 60.565 183.035 60.568 182.022 60.571 C154.863 60.683 128.343 63.782 101.703 68.949 C96.81 69.89 91.959 70.528 87 71 C87 71.66 87 72.32 87 73 C88.046 72.796 88.046 72.796 89.114 72.589 C105.018 69.514 120.896 66.784 137 65 C137.776 64.905 138.553 64.81 139.353 64.712 C148.314 63.734 157.318 63.743 166.323 63.705 C168.224 63.693 170.125 63.673 172.026 63.643 C201.208 63.191 201.208 63.191 213 72 C215.666 75.2 216.044 76.071 215.75 80.125 C214.655 89.266 207.6 95.127 201 101 C196.785 104.203 192.436 107.115 188 110 C187.117 110.606 186.234 111.212 185.324 111.836 C175.952 118.122 165.518 122.937 155 127 C157.79 124.123 160.642 121.419 163.688 118.812 C171.87 111.653 178.857 105.247 183 95 C183.072 86.579 183.072 86.579 180.062 84.25 C169.893 76.779 157.839 75.726 145.562 75.25 C144.501 75.208 143.44 75.167 142.347 75.124 C125.494 74.639 108.578 75.964 92 79 C93.243 82.943 94.709 86.716 96.361 90.505 C103.747 107.594 109.637 126.223 109 145 C104.545 147.475 104.545 147.475 100 150 C99.34 149.67 98.68 149.34 98 149 C99.65 148.34 101.3 147.68 103 147 C99.383 117.174 89.89 90.213 68.941 68.062 C67 66 67 66 64.625 62.938 C47.687 43.984 21.718 31.047 -2.286 23.716 C-9.428 21.529 -14.236 19.579 -19.562 14.148 C-29.266 5.595 -42.656 1.119 -55 -2 C-56.45 -2.367 -56.45 -2.367 -57.93 -2.742 C-71.417 -5.531 -86.381 -4.579 -100 -3 C-96.408 -5.096 -92.811 -5.777 -88.75 -6.562 C-87.487 -6.811 -86.223 -7.06 -84.922 -7.316 C-56.868 -12.206 -26.802 -9.491 0 0 Z M272 85 C271.499 85.499 270.997 85.998 270.48 86.512 C262.869 93.734 254.404 99.442 245.679 105.225 C243.884 106.414 242.093 107.608 240.306 108.807 C218.263 123.585 195.356 136.512 171.739 148.588 C168.603 150.205 165.494 151.867 162.389 153.541 C151.453 159.428 140.246 164.735 129 170 C127.539 170.685 127.539 170.685 126.049 171.384 C111.474 178.197 96.743 184.586 81.898 190.785 C79.417 191.825 76.943 192.878 74.473 193.941 C47.382 205.576 19.775 216.125 -8 226 C-9.108 226.394 -10.217 226.789 -11.359 227.195 C-19.142 229.948 -26.951 232.622 -34.776 235.252 C-36.321 235.772 -37.867 236.293 -39.412 236.814 C-122.018 264.709 -207.856 287.402 -330 300 C-330 301.98 -330 303.96 -330 306 C-320.087 306.183 -310.305 305.653 -300.438 304.812 C-299.664 304.748 -298.891 304.683 -298.095 304.616 C-280.296 303.099 -262.645 300.761 -245 298 C-244.32 297.894 -243.639 297.789 -242.938 297.68 C-183.045 288.328 -123.863 272.882 -66 255 C-65.28 254.778 -64.561 254.556 -63.819 254.327 C-20.564 240.961 22.268 225.561 64 208 C66.052 207.143 68.104 206.286 70.156 205.43 C92.241 196.178 114.084 186.439 135.75 176.25 C136.502 175.898 137.253 175.546 138.027 175.183 C147.027 170.96 155.883 166.558 164.617 161.808 C168.127 159.932 171.671 158.177 175.25 156.438 C194.128 147.115 212.399 136.539 230 125 C231.522 124.016 233.044 123.031 234.566 122.047 C249.07 112.594 262.721 102.099 276 91 C276 89.68 276 88.36 276 87 C274.68 86.34 273.36 85.68 272 85 Z " fill="#000000" transform="translate(569,355)"/>
</svg>
